<?xml version="1.0" encoding="UTF-8" standalone="no"?>
<svg
   width="24"
   height="24"
   viewBox="0 0 24 24"
   fill="none"
   version="1.1"
   id="svg1"
   sodipodi:docname="trash.svg"
   inkscape:version="1.4.2 (ebf0e940d0, 2025-05-08)"
   xmlns:inkscape="http://www.inkscape.org/namespaces/inkscape"
   xmlns:sodipodi="http://sodipodi.sourceforge.net/DTD/sodipodi-0.dtd"
   xmlns="http://www.w3.org/2000/svg"
   xmlns:svg="http://www.w3.org/2000/svg">
  <defs
     id="defs1" />
  <sodipodi:namedview
     id="namedview1"
     pagecolor="#ffffff"
     bordercolor="#000000"
     borderopacity="0.25"
     inkscape:showpageshadow="2"
     inkscape:pageopacity="0.0"
     inkscape:pagecheckerboard="0"
     inkscape:deskcolor="#d1d1d1"
     inkscape:zoom="6.7760741"
     inkscape:cx="-26.711632"
     inkscape:cy="18.668627"
     inkscape:window-width="2253"
     inkscape:window-height="1368"
     inkscape:window-x="1434"
     inkscape:window-y="44"
     inkscape:window-maximized="0"
     inkscape:current-layer="svg1" />
  <path
     d="M 21.428572,3.4285714 H 16.285714 V 2.1428571 c 0,-0.5683217 -0.225771,-1.1133651 -0.627634,-1.51522796 C 15.256217,0.22576457 14.711177,0 14.142857,0 H 9.8571431 C 9.2888231,0 8.7437831,0.22576457 8.3419202,0.62762914 7.9400574,1.029492 7.714286,1.5745354 7.714286,2.1428571 V 3.4285714 H 2.5714288 c -0.227328,0 -0.4453457,0.090309 -0.6060908,0.2510571 C 1.804592,3.84036 1.714286,4.0583828 1.714286,4.2857142 c 0,0.2273315 0.090306,0.4453543 0.251052,0.6060858 0.1607451,0.1607485 0.3787628,0.2510571 0.6060908,0.2510571 H 3.4821431 L 4.5000003,21.477943 C 4.5760631,22.916228 5.6785717,24 7.0714288,24 h 9.8571432 c 1.399817,0 2.4804,-1.0596 2.571428,-2.517943 L 20.517943,5.1428571 h 0.910629 c 0.227314,0 0.445371,-0.090309 0.606171,-0.2510571 0.160629,-0.1607315 0.250971,-0.3787543 0.250971,-0.6060858 0,-0.2273314 -0.09034,-0.4453542 -0.250971,-0.6060857 C 21.873943,3.51888 21.655886,3.4285714 21.428572,3.4285714 Z M 8.6019602,20.571428 H 8.5714288 C 8.3492917,20.5716 8.1357774,20.485543 7.9758859,20.331257 7.8159945,20.177143 7.7222059,19.9668 7.714286,19.7448 L 7.2857145,7.7448171 c -0.00809,-0.2273314 0.074434,-0.44856 0.2294572,-0.6150343 0.1550228,-0.1664743 0.3698228,-0.2645486 0.5971542,-0.27264 0.2273315,-0.00809 0.44856,0.074434 0.6150343,0.2294571 0.1664743,0.1550229 0.2645486,0.3698229 0.27264,0.5971543 L 9.4285716,19.683771 c 0.00411,0.112629 -0.014057,0.224915 -0.053417,0.330343 -0.039343,0.1056 -0.099103,0.202457 -0.1758857,0.284743 -0.076766,0.08246 -0.1690286,0.148971 -0.2715257,0.195771 -0.1024972,0.0468 -0.2131886,0.07286 -0.325783,0.0768 z m 4.2551828,-0.857142 c 0,0.227314 -0.09031,0.445371 -0.251057,0.606171 -0.160732,0.160629 -0.378754,0.250971 -0.606086,0.250971 -0.227331,0 -0.445354,-0.09034 -0.606086,-0.250971 -0.160748,-0.1608 -0.251057,-0.378857 -0.251057,-0.606171 V 7.7142856 c 0,-0.2273314 0.09031,-0.4453542 0.251057,-0.6060857 C 11.554646,6.9474514 11.772669,6.8571428 12,6.8571428 c 0.227332,0 0.445354,0.090309 0.606086,0.2510571 0.160748,0.1607315 0.251057,0.3787543 0.251057,0.6060857 z M 14.571429,3.4285714 H 9.4285716 V 2.1428571 c -6.514e-4,-0.056469 0.00994,-0.1124743 0.031303,-0.1647771 0.021309,-0.052286 0.052851,-0.099789 0.092777,-0.1397143 0.039926,-0.039926 0.087429,-0.071469 0.1397143,-0.092777 0.052303,-0.021309 0.1083086,-0.031949 0.1647772,-0.031303 h 4.2857139 c 0.05647,-6.463e-4 0.112475,0.00999 0.164777,0.031303 0.05229,0.021308 0.09979,0.052851 0.139715,0.092777 0.03993,0.039926 0.07147,0.087429 0.09278,0.1397143 0.02131,0.052303 0.03195,0.1083086 0.0313,0.1647771 z M 16.285714,19.7448 c -0.0079,0.222 -0.101708,0.432343 -0.2616,0.586457 -0.159891,0.154286 -0.373405,0.240343 -0.595542,0.240171 h -0.03106 c -0.112543,-0.0039 -0.2232,-0.03017 -0.325629,-0.07697 -0.102428,-0.0468 -0.19464,-0.113314 -0.271354,-0.195771 -0.07671,-0.08229 -0.136423,-0.179143 -0.175732,-0.284572 -0.03931,-0.1056 -0.05744,-0.217886 -0.05336,-0.330343 L 15,7.6837542 c 0.004,-0.11256 0.03015,-0.2232343 0.07694,-0.3256971 0.04678,-0.1024629 0.11328,-0.1946914 0.195703,-0.2714572 0.08244,-0.076749 0.179177,-0.1365257 0.284709,-0.1759028 0.105514,-0.03936 0.217765,-0.057566 0.330325,-0.053554 0.11256,0.00401 0.223235,0.030154 0.325698,0.076937 0.102462,0.046783 0.194691,0.11328 0.271457,0.1957029 0.07675,0.08244 0.136525,0.1791771 0.175903,0.2846914 0.03936,0.1055315 0.05757,0.2177829 0.05355,0.3303429 z"
     fill="#a09fa6"
     id="path1"
     style="stroke-width:0.999999" />
</svg>
